<?xml version="1.0" encoding="UTF-8"?>
<svg viewBox="0 0 288.97339 253.34293" xmlns="http://www.w3.org/2000/svg" xmlns:xlink="http://www.w3.org/1999/xlink">
 <defs>
  <linearGradient id="a">
   <stop stop-color="#da53c6" offset="0"/>
   <stop stop-color="#b1299e" offset=".6774"/>
   <stop stop-color="#cb7dcb" offset="1"/>
  </linearGradient>
  <linearGradient id="b">
   <stop stop-color="#e8ff42" offset="0"/>
   <stop stop-color="#e8ff42" stop-opacity="0" offset="1"/>
  </linearGradient>
  <linearGradient id="e">
   <stop stop-color="#c22aab" offset="0"/>
   <stop stop-color="#b2b244" offset=".75"/>
   <stop stop-color="#a67f72" offset="1"/>
  </linearGradient>
  <linearGradient id="d">
   <stop stop-color="#c22aab" offset="0"/>
   <stop stop-color="#b24489" offset=".75"/>
   <stop stop-color="#a67f72" offset="1"/>
  </linearGradient>
  <linearGradient id="y" x1="64.795" x2="70.905" y1="415.39" y2="383.65" gradientTransform="matrix(.68122 .17441 -.09934 .73665 147.19 -128.4)" gradientUnits="userSpaceOnUse" xlink:href="#e"/>
  <linearGradient id="v" x1="37.189" x2="30.51" y1="411.72" y2="372.35" gradientTransform="matrix(.8142 -.18377 .12542 .80399 65.64 -130.24)" gradientUnits="userSpaceOnUse" xlink:href="#e"/>
  <linearGradient id="x" x1="64.795" x2="70.905" y1="415.39" y2="383.65" gradientTransform="matrix(.68122 .17441 -.09934 .73665 147.19 -128.4)" gradientUnits="userSpaceOnUse" xlink:href="#d"/>
  <linearGradient id="w" x1="59.964" x2="44.556" y1="443.27" y2="345.32" gradientTransform="matrix(.68122 .17441 -.09934 .73665 147.19 -128.4)" gradientUnits="userSpaceOnUse" xlink:href="#d"/>
  <radialGradient id="l" cx="453.47" cy="346.65" r="72.333" gradientTransform="matrix(.8254 0 0 .71152 -162.38 -102.97)" gradientUnits="userSpaceOnUse" xlink:href="#b"/>
  <radialGradient id="k" cx="189.8" cy="193.17" r="37.482" gradientUnits="userSpaceOnUse" xlink:href="#b"/>
  <radialGradient id="j" cx="466.12" cy="345.79" r="73.472" gradientTransform="matrix(1 0 0 .63567 -392.65 -79.265)" gradientUnits="userSpaceOnUse" xlink:href="#b"/>
  <radialGradient id="i" cx="538.44" cy="282.69" r="39.611" gradientTransform="matrix(1 0 0 1.5578 -392.65 -364.94)" gradientUnits="userSpaceOnUse" xlink:href="#b"/>
  <radialGradient id="h" cx="83.105" cy="144.5" r="78.809" gradientUnits="userSpaceOnUse" xlink:href="#a"/>
  <radialGradient id="g" cx="192.04" cy="78.38" r="51.215" gradientTransform="matrix(1 0 0 1.5302 -47.216 -42.068)" gradientUnits="userSpaceOnUse" xlink:href="#a"/>
  <radialGradient id="f" cx="268.47" cy="142.18" r="68.223" gradientTransform="matrix(1 0 0 1.1668 -47.216 -24.228)" gradientUnits="userSpaceOnUse" xlink:href="#a"/>
  <radialGradient id="p" cx="197.52" cy="173.21" r="36.638" gradientTransform="matrix(.75896 .0102 -.01332 .99148 2.4947 .59989)" gradientUnits="userSpaceOnUse" xlink:href="#a"/>
  <radialGradient id="o" cx="195.5" cy="171.51" r="41.915" gradientTransform="matrix(1 0 0 .68335 -47.216 53.797)" gradientUnits="userSpaceOnUse" xlink:href="#b"/>
  <radialGradient id="m" cx="99.802" cy="196.89" r="37.482" gradientUnits="userSpaceOnUse" xlink:href="#b"/>
  <radialGradient id="u" cx="458.12" cy="345.08" r="76.164" gradientTransform="matrix(.62643 .64569 -.27851 .50448 1.2401 -279.21)" gradientUnits="userSpaceOnUse" xlink:href="#a"/>
  <radialGradient id="t" cx="457.85" cy="345.06" r="75.918" gradientTransform="matrix(-.50114 .73684 -.38901 -.46618 465.35 7.4255)" gradientUnits="userSpaceOnUse" xlink:href="#a"/>
  <radialGradient id="s" cx="148.28" cy="169.59" r="41.915" gradientTransform="matrix(1 0 0 .71749 0 47.91)" gradientUnits="userSpaceOnUse" xlink:href="#a"/>
  <radialGradient id="r" cx="653.32" cy="515.21" r="28.537" gradientTransform="matrix(1 0 0 .87611 0 63.832)" gradientUnits="userSpaceOnUse" xlink:href="#a"/>
  <radialGradient id="q" cx="359.29" cy="397.01" r="1.0714" gradientTransform="matrix(1 0 0 8.3333 0 -2911.4)" gradientUnits="userSpaceOnUse" xlink:href="#a"/>
  <radialGradient id="c" cx="388.15" cy="433.39" r="1.7678" gradientTransform="matrix(1 0 0 3 0 -866.78)" gradientUnits="userSpaceOnUse" xlink:href="#b"/>
  <radialGradient id="n" cx="547" cy="306.36" r="14.647" gradientTransform="matrix(1 0 0 .86207 0 42.257)" gradientUnits="userSpaceOnUse" xlink:href="#b"/>
 </defs>
 <path transform="matrix(1.1974 0 0 1.1974 -633.28 -464.26)" d="m681.85 515.21a28.537 25.001 0 1 1 -57.074 0 28.537 25.001 0 1 1 57.074 0z" fill="url(#r)"/>
 <path d="m57.722 231.33c-5.7085-10.091-5.5619-30.234-3.8204-42.503s5.883-20.112 11.504-29.515 13.744-19.858 22.09-25.917 16.258-10.027 25.728-10.601 18.796-4.1271 28.044 7.75 5.2 44.215 1.3427 61.206-12.392 28.906-19.557 38.653-12.685 17.777-20.978 20.401-14.975-0.42563-22.64-3.6174-16.005-5.7662-21.713-15.857z" fill="url(#t)"/>
 <path d="m154.02 1.4926c11.754 3.1632 21.84 17.482 29.275 29.044 6.3732 9.9105 12.052 21.38 12.241 33.161 0.2264 14.094-9.2846 26.628-13.362 40.122-3.1709 10.492-2.0798 22.94-8.6274 31.731-7.4725 10.032-19.672 22.541-31.878 19.802-20.409-4.5797-24.988-33.858-34.046-52.712-6.1595-12.822-13.485-26.254-13.512-40.479-0.0205-10.468 4.3095-20.931 9.8268-29.826 6.8397-11.028 18.401-22.876 27.71-27.344s10.618-6.6611 22.372-3.4979z" fill="url(#g)"/>
 <path d="m160.94 134.93c9.891-1.1509 23.252-22.441 23.558-26.368-2.4169 12.219-23.747 22.049-22.189 18.283 11.662-11.803 20.644-30.029 23.096-50.695-3.5594 19.266-13.233 38.671-25.959 46.379 11.39-18.014 19.435-40.385 23.587-64.137-4.2816 22.061-18.078 55.886-26.85 61.954 10.045-26.459 17.078-55.458 20.151-85.43-5.289 28.942-9.8285 59.35-22.212 83.911 1.4489-32.386 10.33-62.955 12.112-95.275-3.9136 32.957-10.577 65.069-14.31 98.079-1.5134-35.956-1.6387-72.045-4.2076-107.9l-3.3056 110.15c-4.4771-35.641-9.436-71.149-14.641-106.58 3.4619 32.664 7.5544 65.227 12.883 97.297-2.8136 6.0726-6.6505-24.945-10.068-31.42-4.2085-12.239-13.323-50.156-13.64-50.066 4.8096 30.617 14.709 59.047 21.154 88.801-12.102-23.963-22.205-50.925-28.851-79.351 2.9168 28.466 14.235 52.368 24.885 75.613 3.4702 15.728-10.662-11.575-12.874-16.023-5.6967-10.489-13.994-35.021-15.743-38.95 7.0985 24.579 17.175 47.792 31.111 65.251-12.943-5.708-31.888-35.836-32.442-40.369 1.9064 21.076 24.254 37.142 28.31 44.005-7.9211-0.0595-27.689-13.449-24.718-14.9 14.677 15.894 33.064 24.232 51.164 17.738z" fill="url(#i)" opacity=".55"/>
 <path d="m136.28 181.49c3.3211 5.9878-2.5278 22.657-4.4629 24.534 5.4399-6.6533-0.37346-24.725-1.7279-22.223-1.5548 11.601-5.036 26.473-14.886 36.819 8.6771-10.351 13.573-27.012 12.562-37.423-4.915 14.151-12.01 31.198-22.802 43.828 9.8543-11.967 21.56-37.899 21.257-45.403-9.871 17.077-21.732 37.158-36.209 51.894 13.058-15.518 27.182-35.9 35.131-53.448-16.385 14.884-28.871 37.745-45.089 52.785 15.707-16.5 28.808-37.909 44.614-54.331-19.43 14.793-37.307 34.164-57.102 48.327l56.372-49.724c-20.441 13.012-41.003 25.699-61.621 38.214 18.479-12.281 37.155-24.168 56.064-35.155 2.0639-4.2012-15.702 7.1559-20.448 8.0751-8.079 2.9865-31.551 14.415-31.63 14.2 17.942-10.643 36.757-17.512 54.896-26.873-17.35 3.7047-35.478 9.8216-53 18.494 16.065-10.758 33.072-14.871 49.469-19.069 9.6134-4.9131-10.291-0.88296-13.498-0.17607-7.7529 1.3999-23.891 7.4624-26.643 8.2002 15.687-6.748 31.841-11.25 46.512-11.11-8.1236-4.6987-31.417-2.1102-34.01-0.44746 11.794-8.1057 29.072-2.6928 34.275-3.4262-3.1735-4.3687-18.027-9.5138-17.609-7.235 14.146 1.2324 21.878 6.2008 25.658 19.066z" fill="url(#m)" opacity=".55"/>
 <path d="m27.051 202.77c12.661 8.9565 8.7655 11.406 22.574 12.589s23.477 6.6501 37.08 1.2557 24.986-39.666 35.003-51.519 39.707-12.046 39.707-12.046-21.877-22.752-38.993-36.627c-8.1208-6.5832-24.598-29.194-30.307-36.548-6.1423-7.9116-12.016-10.078-20.046-9.7866-15.493 0.56307-26.024 10.84-36.571 18.728s-14.595 15.035-19.556 28.136c-2.4804 6.5508-7.9253 12.117-9.0082 21.22-6.2107 20.19 1.2951 50.602 20.117 64.597z" fill="url(#h)"/>
 <path d="m142.6 143.94c-3.6852 14.109-17.538 21.362-28.956 28.539-4.9468 3.5083-9.7172 12.761-13.802 13.648 4.2644-8.7639 11.763-15.463 18.577-22.253 5.9036-5.6401 11.939-11.2 17.038-17.603-9.0249-1.894-16.133 5.3502-23.838 8.625-14.236 8.2175-29.306 14.859-44.186 21.765-4.9122 2.9847-9.4169 6.607-13.554 10.589 7.3508-12.52 22.584-15.414 34.547-21.667 10.228-5.8808 20.244-12.158 31.067-16.929 2.3906-1.2044 9.5506-4.3658 8.2456-4.3036-23.138 7.903-47.589 11.888-70.023 21.81-8.9594 5.0587-17.974 10.028-27.176 14.635 16.038-9.687 31.857-21.34 50.836-24.256 14.292-4.0457 28.442-8.6514 42.203-14.262-40.143 7.7483-80.729 16.037-117.98 33.466 35.719-19.739 76.329-27.291 115.97-34.86-37.748 5.7451-77.011 7.1337-112.41 22.875-4.5266 2.1746-3.4832 1.4508 0.19802-0.34243 29.7-14.645 63.335-16.144 95.517-20.981 2.7259-0.451 9.9282-1.4037 9.8682-1.7888-35.54 2.6191-71.764 1.8241-106.42 11.199-7.3648 3.9199 3.6977-0.90494 6.1829-1.5465 33.552-11.039 69.361-8.8869 103.98-13.432-39.508 0.42021-79.364-1.9192-118.49 4.9156 32.939-7.9555 67.028-4.0513 100.53-5.609 2.5757-0.0958 11.253 0.4821 10.569-0.5547-36.168-2.4766-72.363-4.5554-108.52-7.1442 41.825 1.8246 83.615 4.3634 125.42 6.6529-40.66-5.8931-81.667-10.427-121.51-20.783 41.155 8.6423 83.054 12.765 124.71 18.186-35.894-8.6232-73.238-12.95-107.15-28.341 35.326 14.147 73.245 19.342 110.26 27.17-27.61-9.907-54.884-20.916-81.093-34.118-3.314-2.2656-1.6202-4.4019 1.1227-1.5342 18.006 10.761 39.48 13.532 57.612 24.028 8.4928 2.3966 16.131 8.3573 25.302 7.888-13.29-10.451-27.109-20.702-37.913-33.78 10.856 7.5851 19.451 18.56 31.748 24.184 7.3556 4.2721 15.893 10.391 15.882 19.833-0.33207 2.5776-2.0386 4.9018-4.3402 6.0823z" fill="url(#j)" opacity=".55"/>
 <path d="m234.19 247.2c-7.518 6.7063-21.054 7.0458-30.703 5.1284s-15.655-7.6362-23.67-14.768-16.912-18.045-22.774-28.49-10.184-21.459-12.085-33.265 1.0606-36.342 1.0606-36.342 31.353-6.3832 44.904-2.0006 23.412 16.219 31.744 25.155 15.278 17.237 18.523 27.074 2.2716 19.622 1.0896 29.328-0.57028 21.474-8.0882 28.181z" fill="url(#u)"/>
 <path d="m153.32 177.78c-3.3211 5.9878 2.5278 22.657 4.4629 24.534-5.4399-6.6533-2.1265-22.761-0.7721-20.259 1.5548 11.601 7.536 24.509 17.386 34.854-8.6771-10.351-15.002-24.155-13.99-34.566 4.915 14.151 13.439 28.34 24.231 40.971-9.8543-11.967-22.095-34.327-21.793-41.832 9.871 17.077 22.268 33.587 36.744 48.323-13.058-15.518-27.182-31.257-35.131-48.805 16.385 14.884 28.871 33.102 45.089 48.143-15.707-16.5-32.558-37.73-48.364-54.153 19.43 14.793 41.057 33.986 60.852 48.149-18.791-16.575-40.438-32.792-59.229-49.367 20.441 13.012 43.86 25.342 64.478 37.857-18.479-12.281-40.369-24.346-59.278-35.333-2.0639-4.2012 18.916 7.3345 23.663 8.2536 8.079 2.9865 31.551 14.415 31.63 14.2-17.942-10.643-38.364-17.512-56.503-26.873 17.35 3.7047 37.085 9.8216 54.607 18.494-16.065-10.758-33.072-14.871-49.469-19.069-9.6134-4.9131 10.291-0.88296 13.498-0.17607 7.7529 1.3999 23.891 7.4624 26.643 8.2002-15.687-6.748-31.841-11.25-46.512-11.11 8.1236-4.6987 31.417-2.1102 34.01-0.44746-11.794-8.1057-29.072-2.6928-34.275-3.4262 3.1735-4.3687 18.027-9.5138 17.609-7.235-14.146 1.2324-25.806 7.808-29.586 20.673z" fill="url(#k)" opacity=".55"/>
 <path d="m288.78 148.28c-3.566 18.622-12.252 30.835-21.133 44.729-6.1911 9.6858-11.212 22.816-22.114 26.463-12.089 4.0441-26.359-2.0471-37.243-8.6818-7.3343-4.4707-12.117-26.917-17.174-34.077-3.365-4.7647-5.8209-9.7191-9.208-14.323-9.9648-13.545-28.377-26.933-28.377-26.933s10.413-12.319 23.261-26.786c4.1496-4.6722 6.9021-14.131 11.393-24.21 3.9877-8.9509 8.5148-15.14 13.048-17.641 8.6281-4.7605 16.473-4.994 24.547-3.2764 9.7357 2.0711 16.023 9.5264 25.427 15.656 12.931 8.4283 26.723 17.682 30.881 30.907 2.4559 7.8103 0.29629 13.847 0.29629 13.847s7.9345 16.285 6.3947 24.326z" fill="url(#f)"/>
 <path d="m157.73 155.52c4.1624 12.46 15.617 18.891 25.501 25.176 4.3726 2.2301 7.554 6.0524 10.885 9.7254 1.5855 2.0803 8.619 8.1178 4.1313 2.1704-9.3292-12.765-21.377-22.632-32.852-32.952-1.364-8.2569 8.752-1.2193 12.104 0.29136 10.914 4.5956 21.44 10.346 32.412 14.872 4.8504 2.0481 9.758 3.9414 14.738 5.5833 2.7469 2.146 7.8907 7.4392 9.9101 6.7695-7.8762-10.167-20.926-11.417-31.485-16.614-7.22-4.1758-14.505-8.2493-22.146-11.489-2.8417-1.4078-9.8558-4.1927-10.043-4.7668 18.114 4.5626 36.853 6.016 54.685 11.883 9.7994 3.8775 18.849 9.6444 28.592 13.669-14.345-7.5123-28.094-18.49-44.579-19.149-12.662-2.3035-25.186-5.5172-37.444-9.6691 33.586 2.8088 67.685 6.3085 99.468 19.255-30.524-15.437-64.609-18.363-97.727-20.925 29.842 0.81874 60.528-2.4783 89.432 7.5719 2.362 0.80782 7.2502 2.8972 2.2981 0.40593-12.533-5.8034-26.362-7.0545-39.814-8.0572-16.266-0.88819-32.565-0.0597-48.83-0.97619 29.507-1.9899 59.239-8.1073 88.75-2.8445 2.2752 0.89102 6.1937 2.8667 1.559 1.1595-12.658-4.9627-26.323-5.0382-39.616-4.9476-17.714 0.47173-35.356 2.6345-53.063 3.1849 26.377-4.3672 52.656-10.381 79.396-11.511 5.146-0.20541 10.299-0.21858 15.445 0.01-25.752-3.3104-51.07 4.664-76.517 7.501-5.4479 0.81693-10.867 2.049-16.334 2.593 29.858-7.902 59.752-15.639 89.561-23.759-32.896 7.7144-65.635 16.187-98.428 24.396 30.828-11.669 62.179-22.244 91.41-38.267-30.032 14.143-61.48 24.188-92.561 35.159 26.278-13.964 54.836-23.944 77.913-44.12-24.267 19.071-52.792 29.814-79.923 42.921 18.14-14.427 36.596-28.445 53.764-44.249 2.2947-2.9174 1.2672-4.8559-1.3014-1.6699-4.4267 4.2252-8.6958 8.7743-14.09 11.497-12.949 8.4513-24.591 18.982-36.35 29.206-3.5949 3.8942-8.3606 5.2284-8.3606 5.2284l-5.9962 4.9172s1.6839 9.0301 5.5042 10.82z" fill="url(#l)" opacity=".55"/>
 <path d="m157.89 150.23c0 2.0545-1.8721 6.8464-2.1067 11.663-0.25026 5.1379 1.127 10.304 0.82152 12.203-0.59189 3.6794 7.3857 4.319 6.3273 7.1017s-9.0769 1.1619-10.476 2.7181-2.938 2.4168-4.553 2.4168c-1.615 0-3.1536-0.8606-4.553-2.4168s-8.3782 2.1149-9.4366-0.66784 5.4944-4.8621 4.9025-8.5415c-0.31321-1.9469 2.1317-8.3779 2.3567-13.857 0.20022-4.8753-0.94644-7.5821-1.3855-10.144-0.77104-4.4992-2.4464-3.3757-2.4833-7.0979-0.0331-3.3392 0.38206-3.8784 3.3575-5.965 4.3053-3.0193 12.41-2.6791 16.716 0.34022 2.9754 2.0867 2.0513 2.3707 2.1968 6.3053 0.13752 3.72-1.6835 1.6964-1.6835 5.9427z" fill="url(#x)"/>
 <path d="m134.68 185.85s-1.7486 1.5419-6.6151 2.8372c-4.3943 1.1696-11.693 2.1053-16.084 2.1101-0.1745 2.3686 0.20413 4.8217 0.58895 5.4481s1.2359 1.1335 2.2544 1.3431c1.8957 0.38524 4.5319 2.2821 4.5319 2.2821s7.7866 7.516 12.447 10.152c1.9974 1.13 4.5583 1.0737 6.478 2.3311 1.8552 1.2151 2.6473 3.7274 4.5666 4.8386 0.86229 0.49925 1.1674-0.30906 2.7055 0.0705 0.83071 0.205 2.3411 1.7588 2.3411 1.7588l1.7264-1.7026s2.7827-0.89375 3.7427-1.2798c2.7102-1.0898 4.1108-1.4124 7.643-3.6982 1.8556-1.2008 3.479-4.4531 4.7863-4.8551 3.1727-0.97551 12.635-9.2719 15.892-10.036 0.82485-0.19599 1.527-0.58729 1.9335-1.0776 0.80403-0.9664 0.87529-3.2425-0.29744-2.9532-2.7973-1.5758-7.9993-2.2272-11.086-3.4637-4.6785-1.8741-7.2782-4.1659-11.271-5.729z" fill="url(#p)"/>
 <path d="m148.51697,134.88877c-6.20425,0-11.23977,2.84097-11.23977,6.34366 0,.93958-.32665,1.83457.32276,2.63671 .20442-.22437 1.10614-.45912 1.35481-.66695 .40377-.3374.86434-.64366 1.37257-.93061s1.06467-.54754 1.66233-.7755 1.23433-.42891 1.90634-.58939 1.37327-.28776 2.10458-.37222 1.49682-.12409 2.27237-.12409 1.52581.0395 2.25709.12409 1.43261.21177 2.10459.37222 1.32397.36145 1.9216.58939 1.1541.48859 1.66234.7755 .9688.59321 1.37254.93061c.34485.28818 1.59299.4328 1.85143.75205 .79758-.87111.31417-1.67359.31417-2.72181 0-3.50269-5.03552-6.34366-11.23975-6.34366z" fill="url(#w)"/>
 <path d="m157.5 140.05s7.2851 7.407 7.3837 11.083c1.6083 7.5653 6.3361 15.327 1.7041 22.512-1.0183 3.7482-9.7481 3.3854-9.7481 3.3854l-7.6052-6.5056-8.1752 6.6445s-11.283-0.76035-11.567-6.256c-2.4672-7.1285-0.52302-12.739 1.2077-19.76 1.1372-2.3306 8.0991-9.3658 6.6228-11.382-11.103 3.2386-15.078 4.939-18.819 8.8524-8.3187 9.1068-9.5428 12.385-11.963 23.661-0.99874 4.6536 2.4054 11.24 6.2703 14.441 4.0366 2.0235 6.2385-3.8456 9.7235-3.2711 2.7542 4.4672 14.186 2.7821 14.654 9.3991 7.3245 14.122 5.0154-2.2066 11.235 6.733l0.67852-18.415-0.25195 18.315s3.9047-6.0777 4.9048-0.74993c0.99786 5.3158 9.5771-13.941 19.339-13.871 2.5676 0.0182 5.1423 1.4656 8.1748 3.3158 3.6462 2.2246 4.3732-2.0287 7.0574-9.8892 1.4289-4.1844 2.5585-6.902 1.3703-11.151-2.7669-8.3019-8.1503-13.378-14.816-20.178-14.517-10.299-17.381-6.9122-17.381-6.9122z" fill="url(#s)"/>
 <g fill="#d4aa00">
  <path transform="matrix(-.16596 0 0 -.15 181.21 172.94)" d="m182.14 162.01a6.7857 6.7857 0 1 1 -13.571 0 6.7857 6.7857 0 1 1 13.571 0z"/>
  <path transform="matrix(-.16596 0 0 -.15 181.06 168.33)" d="m182.14 162.01a6.7857 6.7857 0 1 1 -13.571 0 6.7857 6.7857 0 1 1 13.571 0z"/>
  <path transform="matrix(-.16596 0 0 -.15 182.28 170.47)" d="m182.14 162.01a6.7857 6.7857 0 1 1 -13.571 0 6.7857 6.7857 0 1 1 13.571 0z"/>
  <path transform="matrix(-.16596 0 0 -.15 182.42 174.97)" d="m182.14 162.01a6.7857 6.7857 0 1 1 -13.571 0 6.7857 6.7857 0 1 1 13.571 0z"/>
  <path transform="matrix(-.16596 0 0 -.15 184.81 176.37)" d="m182.14 162.01a6.7857 6.7857 0 1 1 -13.571 0 6.7857 6.7857 0 1 1 13.571 0z"/>
  <path transform="matrix(-.16596 0 0 -.15 184.95 171.17)" d="m182.14 162.01a6.7857 6.7857 0 1 1 -13.571 0 6.7857 6.7857 0 1 1 13.571 0z"/>
  <path transform="matrix(-.16596 0 0 -.15 183.72 172.94)" d="m182.14 162.01a6.7857 6.7857 0 1 1 -13.571 0 6.7857 6.7857 0 1 1 13.571 0z"/>
  <path transform="matrix(-.16596 0 0 -.15 179.76 170.85)" d="m182.14 162.01a6.7857 6.7857 0 1 1 -13.571 0 6.7857 6.7857 0 1 1 13.571 0z"/>
  <path transform="matrix(-.16596 0 0 -.15 184.17 168.55)" d="m182.14 162.01a6.7857 6.7857 0 1 1 -13.571 0 6.7857 6.7857 0 1 1 13.571 0z"/>
 </g>
 <g fill="#d4aa00">
  <path transform="matrix(.17028 0 0 -.13773 114.99 170.22)" d="m182.14 162.01a6.7857 6.7857 0 1 1 -13.571 0 6.7857 6.7857 0 1 1 13.571 0z"/>
  <path transform="matrix(.17028 0 0 -.13773 115.14 165.99)" d="m182.14 162.01a6.7857 6.7857 0 1 1 -13.571 0 6.7857 6.7857 0 1 1 13.571 0z"/>
  <path transform="matrix(.17028 0 0 -.13773 113.88 167.96)" d="m182.14 162.01a6.7857 6.7857 0 1 1 -13.571 0 6.7857 6.7857 0 1 1 13.571 0z"/>
  <path transform="matrix(.17028 0 0 -.13773 113.74 172.09)" d="m182.14 162.01a6.7857 6.7857 0 1 1 -13.571 0 6.7857 6.7857 0 1 1 13.571 0z"/>
  <path transform="matrix(.17028 0 0 -.13773 111.29 173.37)" d="m182.14 162.01a6.7857 6.7857 0 1 1 -13.571 0 6.7857 6.7857 0 1 1 13.571 0z"/>
  <path transform="matrix(.17028 0 0 -.13773 111.15 168.6)" d="m182.14 162.01a6.7857 6.7857 0 1 1 -13.571 0 6.7857 6.7857 0 1 1 13.571 0z"/>
  <path transform="matrix(.17028 0 0 -.13773 112.41 170.22)" d="m182.14 162.01a6.7857 6.7857 0 1 1 -13.571 0 6.7857 6.7857 0 1 1 13.571 0z"/>
  <path transform="matrix(.17028 0 0 -.13773 116.47 168.3)" d="m182.14 162.01a6.7857 6.7857 0 1 1 -13.571 0 6.7857 6.7857 0 1 1 13.571 0z"/>
  <path transform="matrix(.17028 0 0 -.13773 111.95 166.19)" d="m182.14 162.01a6.7857 6.7857 0 1 1 -13.571 0 6.7857 6.7857 0 1 1 13.571 0z"/>
 </g>
 <path transform="matrix(.24574 0 0 1.036 14.054 -161.16)" d="m561.64 306.36a14.647 12.627 0 1 1 -29.294 0 14.647 12.627 0 1 1 29.294 0z" fill="url(#n)" opacity=".6233"/>
 <path d="m126.98 162.44a0.56427 0.56427 0 0 0 -0.34375 0.40625s-1.2757 4.0042 0.15625 8.125c0.71599 2.0604 2.1212 4.1431 4.6562 5.7188s6.1957 2.6436 11.375 2.75a0.56427 0.56427 0 1 0 0 -1.125c-5.0363-0.10347-8.4649-1.154-10.781-2.5938s-3.5428-3.2699-4.1875-5.125c-1.2893-3.7102-0.15625-7.4375-0.15625-7.4375a0.56427 0.56427 0 0 0 -0.71875 -0.71875z" fill="#112b00" opacity=".2112"/>
 <path d="m125.6 171.57a0.56427 0.56427 0 0 0 -0.4375 0.6875s0.46687 2.178 2.7188 4.375 6.312 4.4619 13.406 4.8438a0.57897 0.57897 0 1 0 0.0625 -1.1562c-6.8819-0.37044-10.642-2.5047-12.688-4.5s-2.375-3.7812-2.375-3.7812a0.56427 0.56427 0 0 0 -0.6875 -0.46875z" fill="#112b00" opacity=".2112"/>
 <path d="m129.10089,178.50312a.56427,.56427 0 0,0 -.3125,1.03125c3.58462,2.73247 5.81378,3.49705 10.21875,3.59375 .47779.009.95863.0395 1.4375.0312a.57813,.57813 0 0,0 0-1.15625c-.46419.008-.94106.009-1.40625,0-4.29203-.0942-6.06796-.71119-9.5625-3.375a.56427,.56427 0 0,0 -.375-.125z" fill="#112b00" opacity=".2112"/>
 <path d="m169.6 162.94a0.56427 0.56427 0 0 0 -0.53125 0.75s1.1753 3.8954-0.0937 7.625c-0.63452 1.8648-1.8496 3.6957-4.1562 5.0312s-5.726 2.1915-10.781 2a0.56427 0.56427 0 1 0 -0.0625 1.125c5.2013 0.19707 8.8612-0.6826 11.406-2.1562s3.9501-3.5498 4.6562-5.625c1.4122-4.1503 0.125-8.3125 0.125-8.3125a0.56427 0.56427 0 0 0 -0.5625 -0.4375z" fill="#112b00" opacity=".2112"/>
 <path d="m170.98 171.16a0.56427 0.56427 0 0 0 -0.5 0.53125s-0.19002 2.153-2.1875 4.3125-5.8048 4.3124-13.312 4a0.56427 0.56427 0 1 0 -0.0625 1.125c7.7416 0.32214 11.983-1.9268 14.219-4.3438s2.4688-5 2.4688-5a0.56427 0.56427 0 0 0 -0.625 -0.625z" fill="#112b00" opacity=".2112"/>
 <path d="m166.78839,179.15937a.56427,.56427 0 0,0 -.1875.0937c-3.65381,2.44078-5.46046,2.95479-9.75,2.78125-.46431-.0199-.94232-.0576-1.40625-.0937a.56445,.56445 0 1,0 -.0937,1.12495c.47637.0371.95947.0733 1.4375.0937 4.40242.1781 6.68951-.46505 10.4375-2.96875a.56427,.56427 0 0,0 -.4375-1.03125z" fill="#112b00" opacity=".2112"/>
 <path transform="matrix(1 0 0 1.1282 -211.22 -274.49)" d="m360.36 397.01a1.0714 8.9286 0 1 1 -2.1428 0 1.0714 8.9286 0 1 1 2.1428 0z" fill="url(#q)" opacity=".8047"/>
 <path d="m143.41 164.4c2.0133 0.67449 3.0044-3.7088 3.8255-1.4067 0.481 1.3486 0.46437 5.6253 0.65908 8.9863 0.18354 3.1681-0.11962 6.2266-0.19962 7.63-0.24441 6.5523 0.66238 4.9374 0.66238 4.9374s-2.2769 0.18861-3.6902-1.6007c-2.9449-6.7835-2.4573-4.3186-8.6444-11.75-1.0266-1.464-0.38507-5.0509-0.38507-5.0509s0.0744-2.8542 0.37936-4.2262c2.6133-1.278 2.6696 0.68124 4.8495 1.3884 1.1539 0.19676 1.404 0.71098 2.5436 1.0927z" fill="url(#v)"/>
 <path d="m152.84 164.84c-0.87871 0.66251-1.2211-0.3494-2.2137-0.43631-1.3079-0.14807-1.0309-2.5612-2.3309-2.1625-0.32453 0.70383-0.19067 4.2102-0.0491 5.172 0.11438 5.0228-0.0199 9.2492 0.32617 13.96-0.16851 2.8546-0.15623 3.1324-0.15623 3.1324l2.0354-0.20935c0.91752-0.0943 2.371-1.1525 4.1219-5.052 1.5017-3.3445 4.4604-6.0042 5.6519-8.9142 0.65775-1.0429 0.19882-2.3953 0.44023-3.8192 0.31859-1.8793 0.48046-1.8298 0.20042-3.412-0.74171-1.5706-2.9407 0.72462-3.563 1.5438-1.4393 0.18766-1.4228 1.9462-2.5386 0.53384-0.4663-0.47487-1.348-7e-3 -1.9246-0.33672z" fill="url(#y)"/>
 <g fill="#d4aa00">
  <g opacity=".33">
   <path transform="matrix(-.16596 0 0 -.06223 165.63 178.76)" d="m182.14 162.01c0 3.7476-3.0381 6.7857-6.7857 6.7857s-6.7857-3.0381-6.7857-6.7857 3.0381-6.7857 6.7857-6.7857 6.7857 3.0381 6.7857 6.7857z"/>
   <path transform="matrix(-.16596 0 0 -.06223 165.49 176.85)" d="m182.14 162.01c0 3.7476-3.0381 6.7857-6.7857 6.7857s-6.7857-3.0381-6.7857-6.7857 3.0381-6.7857 6.7857-6.7857 6.7857 3.0381 6.7857 6.7857z"/>
   <path transform="matrix(-.16596 0 0 -.06223 166.71 177.74)" d="m182.14 162.01c0 3.7476-3.0381 6.7857-6.7857 6.7857s-6.7857-3.0381-6.7857-6.7857 3.0381-6.7857 6.7857-6.7857 6.7857 3.0381 6.7857 6.7857z"/>
   <path transform="matrix(-.16596 0 0 -.06223 169.24 180.18)" d="m182.14 162.01c0 3.7476-3.0381 6.7857-6.7857 6.7857s-6.7857-3.0381-6.7857-6.7857 3.0381-6.7857 6.7857-6.7857 6.7857 3.0381 6.7857 6.7857z"/>
   <path transform="matrix(-.16596 0 0 -.06223 169.37 178.03)" d="m182.14 162.01c0 3.7476-3.0381 6.7857-6.7857 6.7857s-6.7857-3.0381-6.7857-6.7857 3.0381-6.7857 6.7857-6.7857 6.7857 3.0381 6.7857 6.7857z"/>
   <path transform="matrix(-.16596 0 0 -.06223 168.15 178.76)" d="m182.14 162.01c0 3.7476-3.0381 6.7857-6.7857 6.7857s-6.7857-3.0381-6.7857-6.7857 3.0381-6.7857 6.7857-6.7857 6.7857 3.0381 6.7857 6.7857z"/>
   <path transform="matrix(-.16596 0 0 -.06223 168.6 176.94)" d="m182.14 162.01c0 3.7476-3.0381 6.7857-6.7857 6.7857s-6.7857-3.0381-6.7857-6.7857 3.0381-6.7857 6.7857-6.7857 6.7857 3.0381 6.7857 6.7857z"/>
  </g>
  <g opacity=".33">
   <path transform="matrix(-.16596 0 0 -.06223 169.83 182.33)" d="m182.14 162.01c0 3.7476-3.0381 6.7857-6.7857 6.7857s-6.7857-3.0381-6.7857-6.7857 3.0381-6.7857 6.7857-6.7857 6.7857 3.0381 6.7857 6.7857z"/>
   <path transform="matrix(-.16596 0 0 -.06223 171.71 179.17)" d="m182.14 162.01c0 3.7476-3.0381 6.7857-6.7857 6.7857s-6.7857-3.0381-6.7857-6.7857 3.0381-6.7857 6.7857-6.7857 6.7857 3.0381 6.7857 6.7857z"/>
   <path transform="matrix(-.16596 0 0 -.06223 170.24 183.89)" d="m182.14 162.01c0 3.7476-3.0381 6.7857-6.7857 6.7857s-6.7857-3.0381-6.7857-6.7857 3.0381-6.7857 6.7857-6.7857 6.7857 3.0381 6.7857 6.7857z"/>
   <path transform="matrix(-.16596 0 0 -.06223 173.43 183.75)" d="m182.14 162.01c0 3.7476-3.0381 6.7857-6.7857 6.7857s-6.7857-3.0381-6.7857-6.7857 3.0381-6.7857 6.7857-6.7857 6.7857 3.0381 6.7857 6.7857z"/>
   <path transform="matrix(-.16596 0 0 -.06223 172.34 182.33)" d="m182.14 162.01c0 3.7476-3.0381 6.7857-6.7857 6.7857s-6.7857-3.0381-6.7857-6.7857 3.0381-6.7857 6.7857-6.7857 6.7857 3.0381 6.7857 6.7857z"/>
   <path transform="matrix(-.16596 0 0 -.06223 167.23 181.82)" d="m182.14 162.01c0 3.7476-3.0381 6.7857-6.7857 6.7857s-6.7857-3.0381-6.7857-6.7857 3.0381-6.7857 6.7857-6.7857 6.7857 3.0381 6.7857 6.7857z"/>
   <path transform="matrix(-.16596 0 0 -.06223 172.79 180.51)" d="m182.14 162.01c0 3.7476-3.0381 6.7857-6.7857 6.7857s-6.7857-3.0381-6.7857-6.7857 3.0381-6.7857 6.7857-6.7857 6.7857 3.0381 6.7857 6.7857z"/>
  </g>
  <g opacity=".33">
   <path transform="matrix(.16596 0 0 -.06223 116.06 185.95)" d="m182.14 162.01c0 3.7476-3.0381 6.7857-6.7857 6.7857s-6.7857-3.0381-6.7857-6.7857 3.0381-6.7857 6.7857-6.7857 6.7857 3.0381 6.7857 6.7857z"/>
   <path transform="matrix(.16596 0 0 -.06223 115.92 187.82)" d="m182.14 162.01c0 3.7476-3.0381 6.7857-6.7857 6.7857s-6.7857-3.0381-6.7857-6.7857 3.0381-6.7857 6.7857-6.7857 6.7857 3.0381 6.7857 6.7857z"/>
   <path transform="matrix(.16596 0 0 -.06223 113.4 186.24)" d="m182.14 162.01c0 3.7476-3.0381 6.7857-6.7857 6.7857s-6.7857-3.0381-6.7857-6.7857 3.0381-6.7857 6.7857-6.7857 6.7857 3.0381 6.7857 6.7857z"/>
   <path transform="matrix(.16596 0 0 -.06223 114.63 186.97)" d="m182.14 162.01c0 3.7476-3.0381 6.7857-6.7857 6.7857s-6.7857-3.0381-6.7857-6.7857 3.0381-6.7857 6.7857-6.7857 6.7857 3.0381 6.7857 6.7857z"/>
   <path transform="matrix(.16596 0 0 -.06223 114.17 185.15)" d="m182.14 162.01c0 3.7476-3.0381 6.7857-6.7857 6.7857s-6.7857-3.0381-6.7857-6.7857 3.0381-6.7857 6.7857-6.7857 6.7857 3.0381 6.7857 6.7857z"/>
  </g>
 </g>
 <g fill="#b18a56">
  <g opacity=".33">
   <path transform="matrix(-.16596 0 0 -.06223 183.22 178.58)" d="m182.14 162.01c0 3.7476-3.0381 6.7857-6.7857 6.7857s-6.7857-3.0381-6.7857-6.7857 3.0381-6.7857 6.7857-6.7857 6.7857 3.0381 6.7857 6.7857z"/>
   <path transform="matrix(-.16596 0 0 -.06223 183.08 176.67)" d="m182.14 162.01c0 3.7476-3.0381 6.7857-6.7857 6.7857s-6.7857-3.0381-6.7857-6.7857 3.0381-6.7857 6.7857-6.7857 6.7857 3.0381 6.7857 6.7857z"/>
   <path transform="matrix(-.16596 0 0 -.06223 184.44 179.42)" d="m182.14 162.01c0 3.7476-3.0381 6.7857-6.7857 6.7857s-6.7857-3.0381-6.7857-6.7857 3.0381-6.7857 6.7857-6.7857 6.7857 3.0381 6.7857 6.7857z"/>
   <path transform="matrix(-.16596 0 0 -.06223 186.83 180)" d="m182.14 162.01c0 3.7476-3.0381 6.7857-6.7857 6.7857s-6.7857-3.0381-6.7857-6.7857 3.0381-6.7857 6.7857-6.7857 6.7857 3.0381 6.7857 6.7857z"/>
   <path transform="matrix(-.16596 0 0 -.06223 186.96 177.85)" d="m182.14 162.01c0 3.7476-3.0381 6.7857-6.7857 6.7857s-6.7857-3.0381-6.7857-6.7857 3.0381-6.7857 6.7857-6.7857 6.7857 3.0381 6.7857 6.7857z"/>
   <path transform="matrix(-.16596 0 0 -.06223 186.19 176.76)" d="m182.14 162.01c0 3.7476-3.0381 6.7857-6.7857 6.7857s-6.7857-3.0381-6.7857-6.7857 3.0381-6.7857 6.7857-6.7857 6.7857 3.0381 6.7857 6.7857z"/>
  </g>
  <g opacity=".33">
   <path transform="matrix(-.16596 0 0 -.06223 181.08 183.04)" d="m182.14 162.01c0 3.7476-3.0381 6.7857-6.7857 6.7857s-6.7857-3.0381-6.7857-6.7857 3.0381-6.7857 6.7857-6.7857 6.7857 3.0381 6.7857 6.7857z"/>
   <path transform="matrix(-.16596 0 0 -.06223 182.37 181.67)" d="m182.14 162.01c0 3.7476-3.0381 6.7857-6.7857 6.7857s-6.7857-3.0381-6.7857-6.7857 3.0381-6.7857 6.7857-6.7857 6.7857 3.0381 6.7857 6.7857z"/>
   <path transform="matrix(-.16596 0 0 -.06223 182.6 179.97)" d="m182.14 162.01c0 3.7476-3.0381 6.7857-6.7857 6.7857s-6.7857-3.0381-6.7857-6.7857 3.0381-6.7857 6.7857-6.7857 6.7857 3.0381 6.7857 6.7857z"/>
   <path transform="matrix(-.16596 0 0 -.06223 184.68 184.47)" d="m182.14 162.01c0 3.7476-3.0381 6.7857-6.7857 6.7857s-6.7857-3.0381-6.7857-6.7857 3.0381-6.7857 6.7857-6.7857 6.7857 3.0381 6.7857 6.7857z"/>
   <path transform="matrix(-.16596 0 0 -.06223 185.98 182.85)" d="m182.14 162.01c0 3.7476-3.0381 6.7857-6.7857 6.7857s-6.7857-3.0381-6.7857-6.7857 3.0381-6.7857 6.7857-6.7857 6.7857 3.0381 6.7857 6.7857z"/>
   <path transform="matrix(-.16596 0 0 -.06223 182.43 185.19)" d="m182.14 162.01c0 3.7476-3.0381 6.7857-6.7857 6.7857s-6.7857-3.0381-6.7857-6.7857 3.0381-6.7857 6.7857-6.7857 6.7857 3.0381 6.7857 6.7857z"/>
   <path transform="matrix(-.16596 0 0 -.06223 184.94 181.22)" d="m182.14 162.01c0 3.7476-3.0381 6.7857-6.7857 6.7857s-6.7857-3.0381-6.7857-6.7857 3.0381-6.7857 6.7857-6.7857 6.7857 3.0381 6.7857 6.7857z"/>
  </g>
  <g opacity=".33">
   <path transform="matrix(.16596 0 0 -.06223 124.28 188.13)" d="m182.14 162.01c0 3.7476-3.0381 6.7857-6.7857 6.7857s-6.7857-3.0381-6.7857-6.7857 3.0381-6.7857 6.7857-6.7857 6.7857 3.0381 6.7857 6.7857z"/>
   <path transform="matrix(.16596 0 0 -.06223 124.42 186.22)" d="m182.14 162.01c0 3.7476-3.0381 6.7857-6.7857 6.7857s-6.7857-3.0381-6.7857-6.7857 3.0381-6.7857 6.7857-6.7857 6.7857 3.0381 6.7857 6.7857z"/>
   <path transform="matrix(.16596 0 0 -.06223 123.2 187.11)" d="m182.14 162.01c0 3.7476-3.0381 6.7857-6.7857 6.7857s-6.7857-3.0381-6.7857-6.7857 3.0381-6.7857 6.7857-6.7857 6.7857 3.0381 6.7857 6.7857z"/>
   <path transform="matrix(.16596 0 0 -.06223 123.07 188.98)" d="m182.14 162.01c0 3.7476-3.0381 6.7857-6.7857 6.7857s-6.7857-3.0381-6.7857-6.7857 3.0381-6.7857 6.7857-6.7857 6.7857 3.0381 6.7857 6.7857z"/>
   <path transform="matrix(.16596 0 0 -.06223 120.68 189.56)" d="m182.14 162.01c0 3.7476-3.0381 6.7857-6.7857 6.7857s-6.7857-3.0381-6.7857-6.7857 3.0381-6.7857 6.7857-6.7857 6.7857 3.0381 6.7857 6.7857z"/>
   <path transform="matrix(.16596 0 0 -.06223 121.41 185.24)" d="m182.14 162.01c0 3.7476-3.0381 6.7857-6.7857 6.7857s-6.7857-3.0381-6.7857-6.7857 3.0381-6.7857 6.7857-6.7857 6.7857 3.0381 6.7857 6.7857z"/>
  </g>
 </g>
 <path transform="matrix(1 0 0 .51216 -246.18 -83.013)" d="m389.92 433.39a1.7678 5.3033 0 1 1 -3.5355 0 1.7678 5.3033 0 1 1 3.5355 0z" fill="url(#c)" opacity=".33"/>
 <path transform="matrix(1 0 0 .51216 -233.93 -82.887)" d="m389.92 433.39a1.7678 5.3033 0 1 1 -3.5355 0 1.7678 5.3033 0 1 1 3.5355 0z" fill="url(#c)" opacity=".33"/>
 <path d="m129.1 142.36c-5.1967 1.8538-7.9787 3.5149-10.594 6.25-8.3187 9.1068-9.5489 12.412-11.969 23.688-0.99874 4.6536 2.4164 11.236 6.2812 14.438 2.635 1.3208 4.4989-0.7073 6.4375-2.125-3.3666-4.7914-5.3125-10.479-5.3125-16.562 0-10.684 6.0076-20.098 15.156-25.688zm41.438 1.7188c7.6892 5.6973 12.594 14.319 12.594 23.969 0 6.6012-2.3081 12.718-6.2188 17.75 1.3717 0.59823 2.7929 1.4288 4.3438 2.375 3.6462 2.2246 4.3784-2.0145 7.0625-9.875 1.4289-4.1844 2.5632-6.9072 1.375-11.156-2.7669-8.3019-8.1472-13.388-14.812-20.188-1.5908-1.1286-3.0213-2.0526-4.3438-2.875zm-29.719 54.25c0.7852 0.684 1.3286 0.65392 1.8125 0.34375-0.61216-0.0945-1.2118-0.22082-1.8125-0.34375zm15.438 0c-0.82675 0.16919-1.6519 0.32254-2.5 0.4375 0.28678 1.4531 1.1763 0.96166 2.5-0.4375zm-8.2188 0.78125c0.12651 0.17 0.24073 0.27576 0.375 0.46875l0.0312-0.46875h-0.40625zm0.8125 0v0.375s0.19735-0.25332 0.28125-0.375h-0.28125z" fill="url(#o)" opacity=".4326"/>
</svg>
